<svg xmlns="http://www.w3.org/2000/svg" viewBox="0 -0.5 106 106" shape-rendering="crispEdges">
<metadata>Made with Pixels to Svg https://codepen.io/shshaw/pen/XbxvNj</metadata>
<path stroke="#ffffff" d="M46 0h14M40 1h26M37 2h32M34 3h38M32 4h42M29 5h48M28 6h50M26 7h54M24 8h58M23 9h60M21 10h64M20 11h66M19 12h68M18 13h70M17 14h72M16 15h74M15 16h76M14 17h78M13 18h80M12 19h82M11 20h84M10 21h86M10 22h86M9 23h88M8 24h90M8 25h90M7 26h92M7 27h92M6 28h94M5 29h96M5 30h96M5 31h96M4 32h98M4 33h98M3 34h100M3 35h100M3 36h100M2 37h102M2 38h102M2 39h102M1 40h104M1 41h72M86 41h19M1 42h68M88 42h17M1 43h27M42 43h25M88 43h17M1 44h25M44 44h21M89 44h16M1 45h23M45 45h18M75 45h8M90 45h15M0 46h23M46 46h15M71 46h13M91 46h15M0 47h23M30 47h9M47 47h14M69 47h16M91 47h4M105 47h1M0 48h23M28 48h12M57 48h4M67 48h19M105 48h1M0 49h7M21 49h2M27 49h15M65 49h22M0 50h4M27 50h16M65 50h22M0 51h2M27 51h15M65 51h22M97 51h4M0 52h2M26 52h15M47 52h7M65 52h21M92 52h10M0 53h1M9 53h8M26 53h15M46 53h15M66 53h19M91 53h11M0 54h1M6 54h16M26 54h13M45 54h16M67 54h16M90 54h13M5 55h17M26 55h12M45 55h16M72 55h8M89 55h15M5 56h17M27 56h8M44 56h18M89 56h17M4 57h18M43 57h19M88 57h18M4 58h18M42 58h22M85 58h21M3 59h19M40 59h29M82 59h24M1 60h23M37 60h68M1 61h104M1 62h104M1 63h104M1 64h104M1 65h104M2 66h102M2 67h102M2 68h102M3 69h100M3 70h100M3 71h100M4 72h98M4 73h98M5 74h96M5 75h96M5 76h96M6 77h94M7 78h92M7 79h92M8 80h90M8 81h90M9 82h88M10 83h86M10 84h86M11 85h84M12 86h82M13 87h80M14 88h78M15 89h76M16 90h74M17 91h72M18 92h70M19 93h68M20 94h66M21 95h64M23 96h60M24 97h58M26 98h54M28 99h50M29 100h48M32 101h42M34 102h38M37 103h32M40 104h26M46 105h14" />
<path stroke="#000000" d="M73 41h13M69 42h19M28 43h14M67 43h21M26 44h18M65 44h24M24 45h21M63 45h12M83 45h7M23 46h23M61 46h10M84 46h7M23 47h7M39 47h8M61 47h8M85 47h6M95 47h10M23 48h5M40 48h17M61 48h6M86 48h19M7 49h14M23 49h4M42 49h23M87 49h19M4 50h23M43 50h22M87 50h19M2 51h25M42 51h23M87 51h10M101 51h5M2 52h24M41 52h6M54 52h11M86 52h6M102 52h4M1 53h8M17 53h9M41 53h5M61 53h5M85 53h6M102 53h4M1 54h5M22 54h4M39 54h6M61 54h6M83 54h7M103 54h3M0 55h5M22 55h4M38 55h7M61 55h11M80 55h9M104 55h2M0 56h5M22 56h5M35 56h9M62 56h27M0 57h4M22 57h21M62 57h26M0 58h4M22 58h20M64 58h21M0 59h3M22 59h18M69 59h13M24 60h13" />
</svg>