<svg xmlns="http://www.w3.org/2000/svg" xmlns:xlink="http://www.w3.org/1999/xlink" width="141px" height="98px" viewBox="0 0 130 98" version="1.1">
    <!-- Generator: Sketch 45.2 (43514) - http://www.bohemiancoding.com/sketch -->
    <title>Group 3</title>
    <desc>Created with Sketch.</desc>
    <defs/>
    <g id="Page-1" stroke="none" stroke-width="1" fill="none" fill-rule="evenodd">
        <g id="SPACED" transform="translate(-111.000000, -165.000000)">
            <g id="Group-3" transform="translate(102.000000, 161.000000)">
                
                <g id="Group-2" fill="#040404">
                    <path d="M72.3878,99.8311 C71.8798,99.2281 71.1688,98.8981 70.5218,98.4971 C69.9948,98.1691 69.8058,97.8651 69.9028,97.1941 C70.7508,91.2641 71.5468,85.3271 72.3538,79.3911 C72.8998,75.3771 73.4388,71.3621 74.0018,67.1931 C74.9348,67.8071 75.8028,68.3571 76.6438,68.9441 C76.8928,69.1191 76.7478,69.4361 76.7168,69.6821 C76.5338,71.1171 76.3348,72.5501 76.1398,73.9841 C75.7008,77.2251 75.2598,80.4651 74.8198,83.7061 C74.3848,86.9181 73.9488,90.1301 73.5148,93.3421 C73.4038,94.1711 73.2998,95.0011 73.1868,95.8691 C73.5868,95.9161 73.8238,95.6841 74.0828,95.5421 C81.6028,91.4441 89.1188,87.3401 96.6368,83.2371 C96.8398,83.1261 97.0498,83.0261 97.2448,82.9031 C97.4628,82.7671 97.6538,82.7431 97.8838,82.8981 C98.6708,83.4291 99.4688,83.9441 100.3648,84.5321 C100.0158,84.7401 99.7628,84.9011 99.4998,85.0451 C90.8218,89.7991 82.1408,94.5481 73.4668,99.3101 C73.2098,99.4511 72.8498,99.4791 72.7358,99.8311 L72.3878,99.8311 Z" id="Fill-1" transform="translate(85.121587, 83.512100) rotate(1.000000) translate(-85.121587, -83.512100) "/>
                    <path d="M45.445,45.6226 C45.195,47.1756 44.965,48.5976 44.737,50.0196 C44.007,54.5916 43.276,59.1646 42.546,63.7376 C42.117,66.4236 41.673,69.1076 41.28,71.7996 C41.209,72.2896 41.014,72.4976 40.569,72.6196 C39.736,72.8486 38.914,73.1236 38.116,73.3716 C37.921,73.1716 38.021,73.0036 38.047,72.8386 C38.832,67.8646 39.616,62.8906 40.401,57.9156 C41.164,53.0846 41.928,48.2536 42.684,43.4216 C42.749,43.0126 42.883,42.7546 43.342,42.6486 C44.016,42.4936 44.675,42.2606 45.325,42.0186 C45.755,41.8586 46.041,41.9076 46.387,42.2586 C48.074,43.9716 49.8,45.6466 51.511,47.3366 C56.953,52.7126 62.393,58.0896 67.834,63.4666 C67.954,63.5856 68.063,63.7176 68.215,63.8846 C67.237,64.2876 66.257,64.5316 65.3,64.8436 C64.965,64.9526 64.831,64.6886 64.655,64.5176 C63.329,63.2216 62.006,61.9216 60.686,60.6196 C55.736,55.7366 50.787,50.8516 45.837,45.9676 C45.757,45.8876 45.667,45.8166 45.445,45.6226" id="Fill-14"/>
                    <path d="M71.4323,61.1065 C70.6703,60.3575 69.9813,59.6695 69.2803,58.9955 C69.0303,58.7555 69.1583,58.5315 69.2443,58.2845 C69.8723,56.4825 70.4923,54.6795 71.1173,52.8775 C73.3063,46.5685 75.4963,40.2605 77.6843,33.9515 C77.7663,33.7155 77.8413,33.4775 77.9233,33.2285 C77.5413,33.0835 77.2573,33.2945 76.9703,33.3845 C68.8053,35.9445 60.6453,38.5225 52.4803,41.0835 C51.1973,41.4855 51.6253,41.6005 50.6403,40.6385 C50.1443,40.1545 49.6603,39.6595 49.1623,39.1605 C49.3963,38.8685 49.7413,38.8655 50.0313,38.7735 C59.5113,35.7705 68.9963,32.7855 78.4703,29.7635 C79.1573,29.5445 79.5893,29.6355 80.0303,30.1705 C80.3783,30.5935 80.7843,30.9765 81.2073,31.3255 C81.6093,31.6565 81.6303,31.9785 81.4603,32.4525 C80.3913,35.4465 79.3553,38.4535 78.3083,41.4555 C76.1173,47.7335 73.9263,54.0105 71.7343,60.2885 C71.6513,60.5255 71.5603,60.7605 71.4323,61.1065" id="Fill-16"/>
                    <path d="M69.695,67.4116 C69.536,68.4456 69.38,69.3546 69.264,70.2686 C69.215,70.6576 68.941,70.6926 68.666,70.7796 C66.516,71.4596 64.368,72.1456 62.218,72.8266 C55.99,74.7996 49.761,76.7706 43.533,78.7436 C43.295,78.8186 43.06,78.9006 42.763,78.9996 C42.997,79.3276 43.289,79.4636 43.542,79.6386 C50.546,84.4736 57.547,89.3116 64.567,94.1236 C65.18,94.5446 65.52,94.9196 65.287,95.7146 C65.086,96.4006 65.044,97.1316 64.93,97.8486 C64.591,97.8556 64.419,97.6426 64.218,97.5046 C56.011,91.8646 47.812,86.2136 39.594,80.5886 C39.049,80.2156 38.889,79.8426 39.035,79.2316 C39.17,78.6706 39.291,78.0956 39.314,77.5216 C39.335,77.0006 39.608,76.8476 40.032,76.7136 C49.767,73.6516 59.499,70.5796 69.231,67.5116 C69.338,67.4776 69.451,67.4636 69.695,67.4116" id="Fill-18"/>
                    <path d="M47.1994,5.7969 C47.1624,6.8219 46.9224,7.7789 46.8114,8.7499 C46.7684,9.1279 46.4094,9.1249 46.1514,9.2099 C44.3364,9.8019 42.5184,10.3829 40.7014,10.9689 C34.1774,13.0739 27.6524,15.1759 21.1314,17.2909 C20.8984,17.3659 20.6004,17.3529 20.4194,17.6549 C20.6954,17.8519 20.9674,18.0549 21.2474,18.2459 C28.3084,23.0579 35.3644,27.8759 42.4424,32.6619 C42.9894,33.0319 43.1574,33.3889 43.0274,34.0039 C42.8664,34.7599 42.7724,35.5299 42.6484,36.3009 C42.3024,36.2549 42.0974,36.0329 41.8634,35.8739 C33.6684,30.3089 25.4814,24.7339 17.2734,19.1899 C16.7014,18.8039 16.4964,18.4369 16.6584,17.7829 C16.7964,17.2229 16.8884,16.6439 16.9294,16.0689 C16.9614,15.6189 17.1524,15.4299 17.5744,15.2989 C19.8654,14.5829 22.1454,13.8299 24.4304,13.0959 C31.7564,10.7409 39.0814,8.3889 46.4074,6.0359 C46.6514,5.9579 46.8984,5.8879 47.1994,5.7969" id="Fill-20" transform="translate(31.902084, 21.048900) rotate(1.000000) translate(-31.902084, -21.048900) "/>
                    <path d="M77.6203,26.2154 C76.7983,26.4884 76.0193,26.7144 75.2673,27.0084 C74.7413,27.2154 74.3943,27.1284 73.9773,26.7204 C71.1813,23.9884 68.3523,21.2904 65.5343,18.5814 C62.1533,15.3294 58.7723,12.0764 55.3853,8.8324 C55.1833,8.6384 55.0283,8.3744 54.6623,8.2764 C54.5033,9.3164 54.3413,10.3404 54.1913,11.3654 C53.5043,16.0604 52.8173,20.7554 52.1353,25.4504 C51.7033,28.4284 51.2703,31.4064 50.8623,34.3874 C50.7983,34.8504 50.6433,35.1014 50.1673,35.2294 C49.3323,35.4534 48.5183,35.7574 47.6533,36.0424 C47.5073,35.4904 47.7103,34.9904 47.7803,34.5014 C48.6653,28.2854 49.5803,22.0744 50.4823,15.8614 C50.9603,12.5684 51.4383,9.2764 51.8923,5.9794 C51.9473,5.5804 52.0663,5.3614 52.4713,5.2494 C53.1393,5.0654 53.8003,4.8444 54.4443,4.5894 C54.9403,4.3934 55.2663,4.5064 55.6493,4.8804 C58.3633,7.5304 61.1053,10.1524 63.8373,12.7834 C68.2393,17.0224 72.6413,21.2584 77.0373,25.5024 C77.2373,25.6954 77.5123,25.8344 77.6203,26.2154" id="Fill-22" transform="translate(62.610999, 20.268483) rotate(1.000000) translate(-62.610999, -20.268483) "/>
                    <g id="Group" transform="translate(110.475024, 41.357179) rotate(4.000000) translate(-110.475024, -41.357179) translate(80.975024, 2.857179)">
                        <path d="M2.1989,68.0674 C1.7279,66.6744 1.4339,65.3224 1.1769,63.9614 C0.2029,58.8004 0.3929,53.6974 2.0539,48.6984 C4.6589,40.8564 9.6289,34.9294 16.7559,30.7924 C20.2789,28.7474 24.0499,27.3084 28.0139,26.2424 C28.2739,26.5284 28.1969,26.8984 28.2599,27.2214 C28.3759,27.8174 28.4429,28.4234 28.5709,29.0164 C28.6639,29.4554 28.5059,29.6154 28.0879,29.7444 C25.4589,30.5594 22.9099,31.5794 20.4739,32.8694 C14.0279,36.2824 9.2249,41.2294 6.3939,48.0034 C4.4999,52.5374 3.8889,57.2444 4.5079,62.1194 C4.6759,63.4424 4.9049,64.7514 5.2389,66.0404 C5.3469,66.4604 5.2899,66.7224 4.8349,66.9024 C3.9769,67.2424 3.1429,67.6454 2.1989,68.0674" id="Fill-7"/>
                        <path d="M16.6876,76.8247 C16.6486,75.8107 16.6296,74.8857 16.5696,73.9627 C16.5416,73.5267 16.7066,73.3797 17.1236,73.2817 C19.6936,72.6767 22.1936,71.8517 24.5336,70.6147 C33.0616,66.1057 38.2846,59.1327 40.0626,49.6287 C40.7726,45.8307 40.6566,42.0197 40.1066,38.2127 C40.0736,37.9827 40.0396,37.7537 40.0206,37.5227 C39.9866,37.1257 39.6686,36.6577 39.9396,36.3607 C40.1806,36.0967 40.6676,36.0547 41.0516,35.9267 C41.7076,35.7077 42.3666,35.4987 43.0746,35.2697 C43.4666,36.6107 43.6506,37.9537 43.8246,39.2917 C44.1906,42.1117 44.3086,44.9397 44.0806,47.7857 C43.5596,54.3027 41.2456,60.0917 37.1516,65.1747 C32.7686,70.6157 27.0966,74.0667 20.4236,75.9607 C19.2316,76.2987 18.0256,76.5847 16.6876,76.8247" id="Fill-9"/>
                        <path d="M41.8961933,17.6844713 C42.1971508,17.6737547 42.3337873,17.4987171 42.4963221,17.3835138 C46.3730471,14.6659662 50.4355262,12.2333012 54.400663,9.65328316 C54.6489306,9.49164132 54.8614762,9.38536851 55.1749364,9.55951303 C56.0992419,10.0748022 57.0440875,10.5516903 58.0434092,11.0759099 C57.8290775,11.3250706 57.5781307,11.4313434 57.3539755,11.5670868 C52.3216453,14.6373887 47.2919943,17.7094766 42.2525198,20.7672758 C41.816712,21.0325113 41.5032518,21.3549019 41.2576634,21.8032125 C39.5296139,24.9529957 37.7810243,28.0911693 36.0369,31.232022 C35.7252259,31.7928566 35.7189746,31.7937497 35.1822522,31.5169046 C34.6089149,31.2204124 34.0373636,30.9194549 33.4667054,30.6158183 C32.9058708,30.31754 32.9022986,30.3130747 33.2005769,29.7736732 C34.3017061,27.7839605 35.4055144,25.7960338 36.5084298,23.806321 C37.171965,22.6078495 37.8265698,21.4049127 38.5052869,20.2144786 C38.7044368,19.8652965 38.7937417,19.5205797 38.7901695,19.1169216 C38.7401588,13.3478262 38.7017577,7.57783768 38.6615705,1.8078492 C38.6597844,1.55422334 38.6615705,1.30059747 38.6615705,0.982672087 C39.5028225,1.29791832 40.1904701,1.83017542 40.9781391,2.11595105 C41.9069099,2.45263046 42.1257069,3.03579134 42.1060598,3.9842092 C42.0283646,7.73501427 42.0480116,11.4884985 42.0167549,15.2401966 C42.0105036,16.0403684 41.9399527,16.8405401 41.8961933,17.6844713" id="Fill-11"/>
                        <path d="M22.4095178,43.5883927 C22.3655178,44.9843927 20.8725178,46.9413927 19.5365178,47.3163927 C18.5345178,47.5963927 17.6405178,47.3593927 16.9025178,46.6263927 C16.1985178,45.9283927 16.0165178,45.0673927 16.3165178,44.1463927 C16.7045178,42.9543927 17.4305178,41.9833927 18.5215178,41.3443927 C19.3855178,40.8393927 20.2915178,40.8533927 21.1595178,41.3723927 C21.9915178,41.8693927 22.4625178,42.5853927 22.4095178,43.5883927" id="Fill-24"/>
                        <path d="M33.0142834,49.4728933 C32.9922834,50.9068933 31.4872834,52.8918933 30.1062834,53.2638933 C29.1392834,53.5238933 28.2692834,53.2948933 27.5382834,52.6038933 C26.8322834,51.9368933 26.6652834,51.0848933 26.9302834,50.2078933 C27.3102834,48.9508933 28.0722834,47.9198933 29.2302834,47.2718933 C30.9332834,46.3198933 33.0442834,47.5678933 33.0142834,49.4728933" id="Fill-26"/>
                    </g>
                    <path d="M36.1994,26.7969 C36.1624,27.8219 35.9224,28.7789 35.8114,29.7499 C35.7684,30.1279 35.4094,30.1249 35.1514,30.2099 C33.3364,30.8019 31.5184,31.3829 29.7014,31.9689 C23.1774,34.0739 16.6524,36.1759 10.1314,38.2909 C9.8984,38.3659 9.6004,38.3529 9.4194,38.6549 C9.6954,38.8519 9.9674,39.0549 10.2474,39.2459 C17.3084,44.0579 24.3644,48.8759 31.4424,53.6619 C31.9894,54.0319 32.1574,54.3889 32.0274,55.0039 C31.8664,55.7599 31.7724,56.5299 31.6484,57.3009 C31.3024,57.2549 31.0974,57.0329 30.8634,56.8739 C22.6684,51.3089 14.4814,45.7339 6.2734,40.1899 C5.7014,39.8039 5.4964,39.4369 5.6584,38.7829 C5.7964,38.2229 5.8884,37.6439 5.9294,37.0689 C5.9614,36.6189 6.1524,36.4299 6.5744,36.2989 C8.8654,35.5829 11.1454,34.8299 13.4304,34.0959 C20.7564,31.7409 28.0814,29.3889 35.4074,27.0359 C35.6514,26.9579 35.8984,26.8879 36.1994,26.7969" id="Fill-20" transform="translate(20.902084, 42.048900) rotate(-63.000000) translate(-20.902084, -42.048900) "/>
                </g>
            </g>
        </g>
    </g>
</svg>