<svg xmlns="http://www.w3.org/2000/svg" viewBox="0 -0.5 106 106" shape-rendering="crispEdges" xmlns:v="https://vecta.io/nano"><path stroke="#fff" d="M46 0h14M40 1h26M37 2h32M34 3h38M32 4h42M29 5h48M28 6h50M26 7h54M24 8h58M23 9h60m-62 1h64m-65 1h66m-67 1h68m-69 1h70m-71 1h72m-73 1h74m-75 1h76m-77 1h78m-79 1h80m-81 1h82m-83 1h84m-85 1h86m-86 1h86M9 23h88M8 24h90M8 25h90M7 26h92M7 27h92M6 28h94M5 29h96M5 30h96M5 31h96M4 32h98M4 33h98M3 34h100M3 35h100M3 36h100M2 37h102M2 38h102M2 39h102M1 40h104M1 41h72m13 0h19M1 42h68m19 0h17M1 43h27m14 0h25m21 0h17M1 44h25m18 0h21m24 0h16M1 45h23m21 0h18m12 0h8m7 0h15M0 46h23m23 0h15m10 0h13m7 0h15M0 47h23m7 0h9m8 0h14m8 0h16m6 0h4m10 0h1M0 48h23m5 0h12m17 0h4m6 0h19m19 0h1M0 49h7m14 0h2m4 0h15m23 0h22M0 50h4m23 0h16m22 0h22M0 51h2m25 0h15m23 0h22m10 0h4M0 52h2m24 0h15m6 0h7m11 0h21m6 0h10M0 53h1m8 0h8m9 0h15m5 0h15m5 0h19m6 0h11M0 54h1m5 0h16m4 0h13m6 0h16m6 0h16m7 0h13M5 55h17m4 0h12m7 0h16m11 0h8m9 0h15M5 56h17m5 0h8m9 0h18m27 0h17M4 57h18m21 0h19m26 0h18M4 58h18m20 0h22m21 0h21M3 59h19m18 0h29m13 0h24M1 60h23m13 0h68M1 61h104M1 62h104M1 63h104M1 64h104M1 65h104M2 66h102M2 67h102M2 68h102M3 69h100M3 70h100M3 71h100M4 72h98M4 73h98M5 74h96M5 75h96M5 76h96M6 77h94M7 78h92M7 79h92M8 80h90M8 81h90M9 82h88m-87 1h86m-86 1h86m-85 1h84m-83 1h82m-81 1h80m-79 1h78m-77 1h76m-75 1h74m-73 1h72m-71 1h70m-69 1h68m-67 1h66m-65 1h64m-62 1h60m-59 1h58m-56 1h54m-52 1h50m-49 1h48m-45 1h42m-40 1h38m-35 1h32m-29 1h26m-20 1h14"/><path stroke="#000" d="M73 41h13m-17 1h19m-60 1h14m25 0h21m-62 1h18m21 0h24m-65 1h21m18 0h12m8 0h7m-67 1h23m15 0h10m13 0h7m-68 1h7m9 0h8m14 0h8m16 0h6m4 0h10m-82 1h5m12 0h17m4 0h6m19 0h19M7 49h14m2 0h4m15 0h23m22 0h19M4 50h23m16 0h22m22 0h19M2 51h25m15 0h23m22 0h10m4 0h5M2 52h24m15 0h6m7 0h11m21 0h6m10 0h4M1 53h8m8 0h9m15 0h5m15 0h5m19 0h6m11 0h4M1 54h5m16 0h4m13 0h6m16 0h6m16 0h7m13 0h3M0 55h5m17 0h4m12 0h7m16 0h11m8 0h9m15 0h2M0 56h5m17 0h5m8 0h9m18 0h27M0 57h4m18 0h21m19 0h26M0 58h4m18 0h20m22 0h21M0 59h3m19 0h18m29 0h13m-58 1h13"/></svg>